<mxfile host="app.diagrams.net" modified="2023-07-12T03:36:07.272Z" agent="Mozilla/5.0 (Windows NT 10.0; Win64; x64) AppleWebKit/537.36 (KHTML, like Gecko) Chrome/114.0.0.0 Safari/537.36" version="21.6.1" etag="WMvJf2PzqN6UY_WbWyew" type="github">
  <diagram name="Page-1" id="liV61y3k4Ze8_H5GI6Cc">
    <mxGraphModel>
      <root>
        <mxCell id="0" />
        <mxCell id="1" parent="0" />
      </root>
    </mxGraphModel>
  </diagram>
</mxfile>
